<?xml version="1.0" encoding="UTF-8" standalone="no"?>
<!-- Created with Inkscape (http://www.inkscape.org/) -->

<svg
   xmlns:dc="http://purl.org/dc/elements/1.1/"
   xmlns:cc="http://creativecommons.org/ns#"
   xmlns:rdf="http://www.w3.org/1999/02/22-rdf-syntax-ns#"
   xmlns:svg="http://www.w3.org/2000/svg"
   xmlns="http://www.w3.org/2000/svg"
   xmlns:sodipodi="http://sodipodi.sourceforge.net/DTD/sodipodi-0.dtd"
   xmlns:inkscape="http://www.inkscape.org/namespaces/inkscape"
   id="svg4800"
   version="1.1"
   inkscape:version="0.91 r13725"
   xml:space="preserve"
   width="1024"
   height="413"
   viewBox="0 0 1024 412.99998"
   sodipodi:docname="BAM-Logo-2015.svg"><title
     id="title5390">BAM Logo 2015</title><metadata
     id="metadata4806"><rdf:RDF><cc:Work
         rdf:about=""><dc:format>image/svg+xml</dc:format><dc:type
           rdf:resource="http://purl.org/dc/dcmitype/StillImage" /><dc:title>BAM Logo 2015</dc:title><cc:license
           rdf:resource="http://creativecommons.org/publicdomain/zero/1.0/" /><dc:date>12.01.2016</dc:date><dc:creator><cc:Agent><dc:title>Bundesanstalt für Materialforschung und -prüfung</dc:title></cc:Agent></dc:creator><dc:language>Deutsch</dc:language></cc:Work><cc:License
         rdf:about="http://creativecommons.org/publicdomain/zero/1.0/"><cc:permits
           rdf:resource="http://creativecommons.org/ns#Reproduction" /><cc:permits
           rdf:resource="http://creativecommons.org/ns#Distribution" /><cc:permits
           rdf:resource="http://creativecommons.org/ns#DerivativeWorks" /></cc:License></rdf:RDF></metadata><defs
     id="defs4804"><clipPath
       clipPathUnits="userSpaceOnUse"
       id="clipPath4834"><path
         d="m 439.055,720.668 137.605,0 0,109.6 -137.605,0 0,-109.6 z"
         id="path4836"
         inkscape:connector-curvature="0" /></clipPath><clipPath
       clipPathUnits="userSpaceOnUse"
       id="clipPath5032"><path
         d="m 33.704,634.205 141.286,0 0,29.502 -141.286,0 0,-29.502 z"
         id="path5034"
         inkscape:connector-curvature="0" /></clipPath><clipPath
       clipPathUnits="userSpaceOnUse"
       id="clipPath5144"><path
         d="m 0,634.205 0,-229.528 595.275,225.309 0,4.219 -595.275,0 z m 296.884,-342.927 298.391,-113.071 0,226.008 L 296.884,291.278 Z M 0,0 469.741,0 0,177.998 0,0 Z"
         id="path5146"
         inkscape:connector-curvature="0" /></clipPath><clipPath
       clipPathUnits="userSpaceOnUse"
       id="clipPath5156"><path
         d="m 503.26,595.158 -14.664,-209.695 48.224,-3.372 58.455,22.124 0,225.771 -92.015,-34.828 z"
         id="path5158"
         inkscape:connector-curvature="0" /></clipPath><clipPath
       clipPathUnits="userSpaceOnUse"
       id="clipPath5168"><path
         d="M 431.348,567.94 415.131,336.033 487.624,363.47 503.84,595.378 431.348,567.94 Z"
         id="path5170"
         inkscape:connector-curvature="0" /></clipPath><clipPath
       clipPathUnits="userSpaceOnUse"
       id="clipPath5180"><path
         d="m 323.478,527.112 -14.063,-201.105 66.872,-4.676 39.424,14.921 16.216,231.907 -108.449,-41.047 z"
         id="path5182"
         inkscape:connector-curvature="0" /></clipPath><clipPath
       clipPathUnits="userSpaceOnUse"
       id="clipPath5192"><path
         d="m 251.276,499.784 -13.026,-186.288 58.634,-22.218 10.958,4.147 16.217,231.906 -72.783,-27.547 z"
         id="path5194"
         inkscape:connector-curvature="0" /></clipPath><clipPath
       clipPathUnits="userSpaceOnUse"
       id="clipPath5204"><path
         d="m 179.363,472.565 -9.315,-133.224 68.751,-26.053 13.057,186.715 -72.493,-27.438 z"
         id="path5206"
         inkscape:connector-curvature="0" /></clipPath><clipPath
       clipPathUnits="userSpaceOnUse"
       id="clipPath5216"><path
         d="m 107.451,445.347 -5.605,-80.162 68.752,-26.053 9.346,133.653 -72.493,-27.438 z"
         id="path5218"
         inkscape:connector-curvature="0" /></clipPath><clipPath
       clipPathUnits="userSpaceOnUse"
       id="clipPath5228"><path
         d="m 0,404.677 0,-0.899 65.636,-24.872 37.55,-2.626 4.845,69.286 L 0,404.677 Z"
         id="path5230"
         inkscape:connector-curvature="0" /></clipPath><clipPath
       clipPathUnits="userSpaceOnUse"
       id="clipPath5240"><path
         d="m 487.043,363.251 51.037,19.317 -49.444,3.457 -1.593,-22.774 z"
         id="path5242"
         inkscape:connector-curvature="0" /></clipPath><clipPath
       clipPathUnits="userSpaceOnUse"
       id="clipPath5252"><path
         d="m 102.396,364.976 0.83,11.866 -39.415,2.756 38.585,-14.622 z"
         id="path5254"
         inkscape:connector-curvature="0" /></clipPath><clipPath
       clipPathUnits="userSpaceOnUse"
       id="clipPath5264"><path
         d="m 307.262,295.206 70.285,26.602 -68.092,4.761 -2.193,-31.363 z"
         id="path5266"
         inkscape:connector-curvature="0" /></clipPath><clipPath
       clipPathUnits="userSpaceOnUse"
       id="clipPath5276"><path
         d="M 183.155,248.233 173.642,112.2 244.882,85.206 421.85,72.831 433.505,239.507 296.884,291.278 183.155,248.233 Z"
         id="path5278"
         inkscape:connector-curvature="0" /></clipPath><clipPath
       clipPathUnits="userSpaceOnUse"
       id="clipPath5288"><path
         d="m 109.503,220.357 -5.712,-81.688 70.402,-26.677 9.542,136.461 -74.232,-28.096 z"
         id="path5290"
         inkscape:connector-curvature="0" /></clipPath><clipPath
       clipPathUnits="userSpaceOnUse"
       id="clipPath5300"><path
         d="M 417.575,19.767 469.741,0 524.03,0 538.008,199.908 432.955,239.716 417.575,19.767 Z"
         id="path5302"
         inkscape:connector-curvature="0" /></clipPath><clipPath
       clipPathUnits="userSpaceOnUse"
       id="clipPath5312"><path
         d="m 36.141,192.591 -1.928,-27.557 70.128,-26.573 5.742,82.115 -73.942,-27.985 z"
         id="path5314"
         inkscape:connector-curvature="0" /></clipPath><clipPath
       clipPathUnits="userSpaceOnUse"
       id="clipPath5324"><path
         d="m 523.465,0 71.81,0 0,178.207 -57.817,21.909 L 523.465,0 Z"
         id="path5326"
         inkscape:connector-curvature="0" /></clipPath><clipPath
       clipPathUnits="userSpaceOnUse"
       id="clipPath5336"><path
         d="M 0,178.912 0,177.998 34.764,164.825 36.721,192.81 0,178.912 Z"
         id="path5338"
         inkscape:connector-curvature="0" /></clipPath><clipPath
       clipPathUnits="userSpaceOnUse"
       id="clipPath5348"><path
         d="m 243.22,85.835 114.945,-43.556 61.249,-4.283 2.475,35.396 -178.666,12.494 -0.003,-0.051 z"
         id="path5350"
         inkscape:connector-curvature="0" /></clipPath><clipPath
       clipPathUnits="userSpaceOnUse"
       id="clipPath5360"><path
         d="m 418.125,19.559 1.329,19 -63.116,4.413 61.787,-23.413 z"
         id="path5362"
         inkscape:connector-curvature="0" /></clipPath><clipPath
       clipPathUnits="userSpaceOnUse"
       id="clipPath5372"><path
         d="M 0,178.912 296.884,291.278 0,403.778 0,178.912 Z"
         id="path5374"
         inkscape:connector-curvature="0" /></clipPath></defs><sodipodi:namedview
     pagecolor="#ffffff"
     bordercolor="#666666"
     borderopacity="1"
     objecttolerance="10"
     gridtolerance="10"
     guidetolerance="10"
     inkscape:pageopacity="0"
     inkscape:pageshadow="2"
     inkscape:window-width="1920"
     inkscape:window-height="1058"
     id="namedview4802"
     showgrid="false"
     fit-margin-top="0"
     fit-margin-left="0"
     fit-margin-right="0"
     fit-margin-bottom="0"
     inkscape:zoom="0.70710678"
     inkscape:cx="570.41556"
     inkscape:cy="299.15555"
     inkscape:window-x="-8"
     inkscape:window-y="-8"
     inkscape:window-maximized="1"
     inkscape:current-layer="g4808"
     showguides="true"
     inkscape:guide-bbox="true" /><g
     id="g4808"
     inkscape:groupmode="layer"
     inkscape:label="BAM-lgog_forschungsprogramm"
     transform="matrix(1.25,0,0,-1.25,-574.74898,1380.2934)"><g
       id="g5799"
       transform="matrix(9.275402,0,0,9.275402,-3805.0237,-6408.0526)"><g
         id="g5787"><g
           id="g4810"
           transform="translate(459.79925,789.22341)"><path
             d="m 0,0 0,5.711 19.715,7.466 0,-5.711 L 0,0 Z"
             style="fill:#8b140c;fill-opacity:1;fill-rule:nonzero;stroke:none"
             id="path4812"
             inkscape:connector-curvature="0" /></g><g
           id="g4814"
           transform="translate(459.79925,809.85951)"><path
             d="m 0,0 0,-5.711 19.715,-7.466 0,5.711 L 0,0 Z"
             style="fill:#d40f14;fill-opacity:1;fill-rule:nonzero;stroke:none"
             id="path4816"
             inkscape:connector-curvature="0" /></g><g
           id="g4818"
           transform="translate(459.79925,789.22311)"><path
             d="m 0,0 19.715,-7.466 0,5.711 L 0,5.711 0,0 Z"
             style="fill:#005268;fill-opacity:1;fill-rule:nonzero;stroke:none"
             id="path4820"
             inkscape:connector-curvature="0" /></g><g
           id="g4822"
           transform="translate(459.79925,780.00491)"><path
             d="m 0,0 0,-5.711 19.715,7.466 0,5.711 L 0,0 Z"
             style="fill:#009ee3;fill-opacity:1;fill-rule:nonzero;stroke:none"
             id="path4824"
             inkscape:connector-curvature="0" /></g><g
           id="g4826"
           transform="translate(459.79925,794.93441)"><path
             d="M 0,0 0,-5.712 7.542,-2.856 0,0 Z"
             style="fill:#001f33;fill-opacity:1;fill-rule:nonzero;stroke:none"
             id="path4828"
             inkscape:connector-curvature="0" /></g></g><g
         id="g5779"><g
           id="g4838"
           transform="translate(503.21615,788.60011)"><path
             d="m 0,0 c 0,1.64 -0.928,2.538 -2.971,2.538 l -5.199,0 0,-7.056 5.354,0 C -0.928,-4.518 0,-3.714 0,-2.167 L 0,0 Z m -0.681,9.563 c 0,1.33 -0.742,1.949 -2.352,1.949 l -5.137,0 0,-6.684 4.704,0 c 2.012,0 2.785,0.928 2.785,2.414 l 0,2.321 z m -10.15,-16.371 0,20.611 7.953,0 c 3.25,0 4.859,-1.455 4.859,-4.179 l 0,-2.382 C 1.981,5.663 1.455,4.487 -0.371,3.806 1.424,3.497 2.661,2.29 2.661,0.093 l 0,-2.476 c 0,-2.878 -2.011,-4.425 -5.106,-4.425 l -8.386,0 z"
             style="fill:#0f2127;fill-opacity:1;fill-rule:nonzero;stroke:none"
             id="path4840"
             inkscape:connector-curvature="0" /></g><g
           id="g4842"
           transform="translate(516.73745,800.48391)"><path
             d="m 0,0 -3.683,-11.42 7.366,0 L 0,0 Z m 8.759,-18.692 -2.693,0 -1.702,4.952 -8.759,0 -1.671,-4.952 -2.692,0 6.963,20.611 3.59,0 6.964,-20.611 z"
             style="fill:#0f2127;fill-opacity:1;fill-rule:nonzero;stroke:none"
             id="path4844"
             inkscape:connector-curvature="0" /></g><g
           id="g4846"
           transform="translate(531.03515,798.50311)"><path
             d="m 0,0 -0.402,-16.711 -2.569,0 0.712,20.611 3.373,0 5.942,-15.939 5.942,15.939 3.373,0 0.712,-20.611 -2.568,0 L 14.112,0 8.851,-14.05 l -3.59,0 L 0,0 Z"
             style="fill:#0f2127;fill-opacity:1;fill-rule:nonzero;stroke:none"
             id="path4848"
             inkscape:connector-curvature="0" /></g></g></g></g></svg>