<?xml version="1.0" encoding="UTF-8" standalone="no"?>
<!-- Created with Inkscape (http://www.inkscape.org/) -->

<svg
   xmlns:dc="http://purl.org/dc/elements/1.1/"
   xmlns:cc="http://creativecommons.org/ns#"
   xmlns:rdf="http://www.w3.org/1999/02/22-rdf-syntax-ns#"
   xmlns:svg="http://www.w3.org/2000/svg"
   xmlns="http://www.w3.org/2000/svg"
   xmlns:sodipodi="http://sodipodi.sourceforge.net/DTD/sodipodi-0.dtd"
   xmlns:inkscape="http://www.inkscape.org/namespaces/inkscape"
   width="139.17999"
   height="90.43"
   id="svg3333"
   version="1.1"
   inkscape:version="0.48.1 "
   sodipodi:docname="Neues Dokument 4">
  <defs
     id="defs3335" />
  <sodipodi:namedview
     id="base"
     pagecolor="#ffffff"
     bordercolor="#666666"
     borderopacity="1.0"
     inkscape:pageopacity="0.0"
     inkscape:pageshadow="2"
     inkscape:zoom="4.6990234"
     inkscape:cx="71.568353"
     inkscape:cy="43.656696"
     inkscape:document-units="px"
     inkscape:current-layer="layer1"
     showgrid="false"
     fit-margin-top="0"
     fit-margin-left="0"
     fit-margin-right="0"
     fit-margin-bottom="0"
     inkscape:window-width="1024"
     inkscape:window-height="708"
     inkscape:window-x="-4"
     inkscape:window-y="-4"
     inkscape:window-maximized="1" />
  <metadata
     id="metadata3338">
    <rdf:RDF>
      <cc:Work
         rdf:about="">
        <dc:format>image/svg+xml</dc:format>
        <dc:type
           rdf:resource="http://purl.org/dc/dcmitype/StillImage" />
        <dc:title></dc:title>
      </cc:Work>
    </rdf:RDF>
  </metadata>
  <g
     inkscape:label="Ebene 1"
     inkscape:groupmode="layer"
     id="layer1"
     transform="translate(-75.9762,-384.93388)">
    <g
       id="g40"
       transform="matrix(1.25,0,0,-1.25,111.27057,385.93388)">
      <path
         inkscape:connector-curvature="0"
         d="m 0,0 c -3.419,0 -6.112,-0.481 -8.754,-1.572 -5.024,-2.085 -7.51,-5.42 -7.51,-10.136 0,-3.335 1.191,-5.709 3.833,-7.794 2.9,-2.309 6.889,-3.4 12.275,-3.4 4.248,0 8.288,0.642 11.966,1.989 l 0,10.649 -13.934,0 0.933,-3.657 5.49,0 0,-5.068 c -1.191,-0.384 -2.486,-0.545 -4.092,-0.545 -2.331,0 -4.299,0.449 -5.646,1.251 -1.813,1.123 -2.693,3.176 -2.693,6.351 0,3.336 0.621,5.741 3.056,7.185 1.243,0.738 3.056,1.122 5.18,1.122 2.745,0 5.179,-0.545 7.51,-1.732 l 3.833,2.791 C 8.287,-0.866 4.351,0 0,0"
         style="fill:#231f20;fill-opacity:1;fill-rule:evenodd;stroke:none"
         id="path42" />
    </g>
    <g
       id="g44"
       transform="matrix(1.25,0,0,-1.25,137.98557,414.24013)">
      <path
         inkscape:connector-curvature="0"
         d="m 0,0 7.252,0 0,9.847 9.168,0 0,3.657 -9.168,0 0,5.1 11.446,0 0.83,3.624 L 0,22.228 0,0"
         style="fill:#231f20;fill-opacity:1;fill-rule:evenodd;stroke:none"
         id="path46" />
    </g>
    <g
       id="g48"
       transform="matrix(1.25,0,0,-1.25,172.29057,391.02638)">
      <path
         inkscape:connector-curvature="0"
         d="m 0,0 11.084,0 c 2.176,0 3.678,0.16 3.678,0.16 0,0 -1.243,-0.994 -2.227,-2.02 l -13.26,-13.568 0,-3.143 22.48,0 1.864,3.656 -12.12,0 c -1.451,0 -3.574,-0.128 -3.574,-0.128 0,0 1.087,0.769 1.864,1.571 l 13.364,13.953 0,3.24 -21.547,0 L 0,0"
         style="fill:#231f20;fill-opacity:1;fill-rule:evenodd;stroke:none"
         id="path50" />
    </g>
    <g
       id="g52"
       transform="matrix(1.25,0,0,-1.25,214.15807,444.22513)">
      <path
         inkscape:connector-curvature="0"
         d="M 0,0 C -33.547,8.193 -76.408,8.059 -109.747,-0.225 -81.753,13.358 -28.402,13.488 0,0"
         style="fill:#135ca1;fill-opacity:1;fill-rule:evenodd;stroke:none"
         id="path54" />
    </g>
    <g
       id="g56"
       transform="matrix(1.25,0,0,-1.25,94.21182,465.70513)">
      <path
         inkscape:connector-curvature="0"
         d="m 0,0 1.67,0 c 0.563,0 1.013,-0.116 1.313,-0.337 0.3,-0.209 0.45,-0.5 0.45,-0.872 0,-0.383 -0.093,-0.639 -0.319,-0.86 C 2.758,-2.406 2.439,-2.487 1.37,-2.487 L 0,-2.487 0,0 z m -2.627,1.313 0,-8.1 2.627,0 0,2.975 1.445,0 c 1.444,0 2.007,0.093 2.608,0.267 1.425,0.418 2.251,1.302 2.251,2.371 0,0.93 -0.657,1.674 -1.876,2.093 C 3.696,1.174 3.021,1.313 0.807,1.313 l -3.434,0"
         style="fill:#231f20;fill-opacity:1;fill-rule:evenodd;stroke:none"
         id="path58" />
    </g>
    <g
       id="g60"
       transform="matrix(1.25,0,0,-1.25,115.02682,470.20888)">
      <path
         inkscape:connector-curvature="0"
         d="m 0,0 c 0,-1.65 -0.713,-2.185 -2.026,-2.185 -1.407,0 -2.083,0.465 -2.083,2.034 0,1.418 0.601,2.173 2.083,2.173 C -0.469,2.022 0,1.267 0,0 m 2.871,0 c 0,2.08 -2.008,3.126 -4.86,3.126 -3.039,0 -4.915,-1.185 -4.915,-3.231 0,-1.859 1.801,-3.172 5.009,-3.172 3.171,0 4.766,1.324 4.766,3.277"
         style="fill:#231f20;fill-opacity:1;fill-rule:evenodd;stroke:none"
         id="path62" />
    </g>
    <g
       id="g64"
       transform="matrix(1.25,0,0,-1.25,133.56682,466.40263)">
      <path
         inkscape:connector-curvature="0"
         d="m 0,0 -8.18,0 0,-1.232 2.608,0 0,-4.998 2.57,0 0,4.998 2.514,0 C -0.488,-1.232 0.019,0 0,0"
         style="fill:#231f20;fill-opacity:1;fill-rule:evenodd;stroke:none"
         id="path66" />
    </g>
    <g
       id="g68"
       transform="matrix(1.25,0,0,-1.25,148.53307,471.63263)">
      <path
         inkscape:connector-curvature="0"
         d="m 0,0 c 0,0.953 -1.088,1.557 -2.852,1.813 l -1.351,0.198 c -0.844,0.116 -1.05,0.255 -1.05,0.558 0,0.348 0.562,0.569 1.351,0.569 0.788,0 1.669,-0.151 2.626,-0.465 l 1.182,1.081 c -0.938,0.384 -2.495,0.639 -3.865,0.639 -2.42,0 -4.09,-0.836 -4.09,-1.987 0,-0.349 0.131,-0.663 0.413,-0.965 0.375,-0.418 1.107,-0.709 2.195,-0.883 l 1.276,-0.186 c 0.919,-0.116 1.313,-0.36 1.313,-0.697 0,-0.43 -0.6,-0.616 -1.782,-0.616 -1.107,0 -1.952,0.186 -3.002,0.464 l -0.826,-1.185 c 1.22,-0.36 2.477,-0.523 3.696,-0.523 C -1.895,-2.185 0,-1.325 0,0"
         style="fill:#231f20;fill-opacity:1;fill-rule:evenodd;stroke:none"
         id="path70" />
    </g>
    <g
       id="g72"
       transform="matrix(1.25,0,0,-1.25,161.66932,470.52763)">
      <path
         inkscape:connector-curvature="0"
         d="m 0,0 c 0,-1.348 -0.788,-1.72 -1.689,-1.72 l -1.201,0 0,3.858 0.92,0 C -0.413,2.138 0,1.359 0,0 m 2.795,0.128 c 0,1.883 -1.501,2.94 -3.958,3.114 -0.432,0.035 -1.408,0.035 -2.064,0.035 l -2.214,0 0,-6.206 2.608,0 c 0.769,0 1.276,0 1.707,0.035 2.251,0.174 3.921,1.209 3.921,3.022"
         style="fill:#231f20;fill-opacity:1;fill-rule:evenodd;stroke:none"
         id="path74" />
    </g>
    <g
       id="g76"
       transform="matrix(1.25,0,0,-1.25,176.91557,471.09513)">
      <path
         inkscape:connector-curvature="0"
         d="m 0,0 -1.82,0 c 0.3,0.662 0.732,1.685 0.938,2.313 C -0.694,1.685 -0.281,0.651 0,0 m 3.978,-2.476 -3.49,6.265 -2.552,0 -3.715,-6.265 2.646,0 0.713,1.326 2.983,0 0.769,-1.326 2.646,0"
         style="fill:#231f20;fill-opacity:1;fill-rule:evenodd;stroke:none"
         id="path78" />
    </g>
    <g
       id="g80"
       transform="matrix(1.25,0,0,-1.25,201.35932,474.18888)">
      <path
         inkscape:connector-curvature="0"
         d="m 0,0 -1.032,6.23 -3.152,0 -1.332,-2.825 C -5.685,3.045 -5.816,2.673 -5.947,2.29 -6.06,2.685 -6.173,2.94 -6.36,3.347 l -1.276,2.883 -3.133,0 -1.088,-6.23 2.533,0 0.319,2.975 c 0.056,0.384 0.093,0.825 0.112,1.255 0.15,-0.499 0.356,-0.976 0.488,-1.255 l 1.351,-2.964 2.138,0 1.502,3.057 c 0.168,0.326 0.375,0.663 0.506,1.023 0.038,-0.43 0.075,-0.732 0.112,-1.058 L -2.458,0 0,0"
         style="fill:#231f20;fill-opacity:1;fill-rule:evenodd;stroke:none"
         id="path82" />
    </g>
    <g
       id="g84"
       transform="matrix(1.25,0,0,-1.25,200.27682,459.24138)">
      <path
         inkscape:connector-curvature="0"
         d="m 0,0 0,3.803 c 0,0.503 -0.238,0.754 -0.715,0.754 -0.254,0 -0.491,-0.07 -0.711,-0.212 -0.22,-0.141 -0.475,-0.336 -0.766,-0.583 l 0,-3.762 -0.883,0 0,3.658 c 0,0.159 -0.011,0.29 -0.034,0.393 -0.022,0.103 -0.063,0.193 -0.123,0.268 -0.126,0.138 -0.317,0.207 -0.57,0.207 -0.216,0 -0.434,-0.053 -0.654,-0.16 -0.22,-0.107 -0.475,-0.28 -0.766,-0.522 l 0,-3.844 -0.839,0 0,3.989 c 0,0.372 -0.033,0.648 -0.1,0.827 -0.068,0.179 -0.101,0.268 -0.101,0.268 l 0.85,0.186 c 0.007,-0.007 0.026,-0.044 0.056,-0.113 0.029,-0.069 0.061,-0.166 0.095,-0.29 0.033,-0.123 0.05,-0.244 0.05,-0.361 0.09,0.096 0.198,0.191 0.324,0.284 0.127,0.093 0.263,0.176 0.409,0.248 0.145,0.072 0.294,0.131 0.447,0.176 0.153,0.044 0.3,0.067 0.442,0.067 0.275,0 0.534,-0.074 0.776,-0.222 0.243,-0.149 0.416,-0.361 0.521,-0.636 0.268,0.262 0.563,0.47 0.883,0.625 0.321,0.155 0.622,0.233 0.906,0.233 0.418,0 0.755,-0.129 1.012,-0.388 C 0.766,4.635 0.895,4.299 0.895,3.886 L 0.895,0 0,0 z m -8.252,-0.217 c -0.187,0.138 -0.325,0.267 -0.414,0.387 -0.09,0.121 -0.153,0.268 -0.19,0.44 -0.425,-0.524 -1.014,-0.786 -1.767,-0.786 -0.358,0 -0.662,0.066 -0.912,0.197 -0.249,0.13 -0.434,0.31 -0.553,0.537 -0.052,0.096 -0.089,0.21 -0.112,0.341 -0.022,0.131 -0.033,0.272 -0.033,0.424 l 0,3.782 0.861,0.155 0,-3.699 c 0,-0.242 0.024,-0.426 0.072,-0.553 0.049,-0.128 0.136,-0.233 0.263,-0.316 0.089,-0.055 0.194,-0.098 0.313,-0.129 0.119,-0.031 0.243,-0.047 0.369,-0.047 0.276,0 0.544,0.085 0.806,0.254 0.26,0.169 0.465,0.394 0.614,0.677 l 0,3.648 0.862,0.134 0,-3.751 c 0,-0.324 0.027,-0.567 0.083,-0.729 0.056,-0.162 0.155,-0.301 0.297,-0.418 l -0.559,-0.548 z m -5.066,4.588 c -0.075,0.028 -0.157,0.042 -0.246,0.042 -0.35,0 -0.66,-0.124 -0.928,-0.372 -0.127,-0.118 -0.213,-0.229 -0.257,-0.336 -0.045,-0.107 -0.067,-0.267 -0.067,-0.481 l 0,-3.224 -0.873,0 0,3.968 c 0,0.379 -0.032,0.657 -0.095,0.832 -0.063,0.176 -0.095,0.264 -0.095,0.264 l 0.873,0.217 c 0.007,-0.007 0.026,-0.047 0.055,-0.119 0.03,-0.072 0.06,-0.176 0.09,-0.31 0.03,-0.134 0.041,-0.271 0.033,-0.408 0.202,0.262 0.442,0.47 0.722,0.625 0.279,0.155 0.561,0.232 0.844,0.232 0.074,0 0.143,-0.008 0.207,-0.025 0.063,-0.018 0.095,-0.026 0.095,-0.026 l -0.358,-0.879 z m -3.813,0.166 -1.163,0 0,-3.318 c 0,-0.289 0.05,-0.489 0.151,-0.599 0.1,-0.11 0.289,-0.165 0.564,-0.165 0.127,0 0.23,0.008 0.308,0.025 0.078,0.018 0.158,0.044 0.24,0.078 l 0.123,-0.517 c -0.283,-0.137 -0.611,-0.206 -0.984,-0.206 -0.149,0 -0.281,0.012 -0.397,0.036 -0.115,0.024 -0.225,0.06 -0.33,0.108 -0.193,0.09 -0.331,0.217 -0.413,0.383 -0.082,0.165 -0.123,0.379 -0.123,0.64 l 0,3.535 -0.727,0 0,0.609 0.727,0 c 0,0.124 0.003,0.262 0.011,0.414 0.007,0.151 0.017,0.293 0.028,0.423 0.011,0.131 0.022,0.242 0.033,0.331 0.012,0.09 0.017,0.134 0.017,0.134 l 0.917,0.187 c 0,0 -0.006,-0.045 -0.017,-0.135 -0.011,-0.09 -0.024,-0.207 -0.039,-0.351 -0.015,-0.145 -0.028,-0.305 -0.039,-0.481 -0.011,-0.176 -0.017,-0.349 -0.017,-0.522 l 1.398,0 -0.268,-0.609 z M -22.051,0 l 0,3.482 c 0,0.138 -0.004,0.252 -0.012,0.342 -0.007,0.089 -0.018,0.165 -0.033,0.227 -0.015,0.062 -0.036,0.115 -0.062,0.16 -0.026,0.045 -0.057,0.088 -0.095,0.129 -0.134,0.145 -0.339,0.217 -0.615,0.217 -0.112,0 -0.236,-0.019 -0.374,-0.056 -0.138,-0.038 -0.276,-0.09 -0.414,-0.156 -0.138,-0.065 -0.274,-0.143 -0.408,-0.232 -0.134,-0.09 -0.25,-0.183 -0.347,-0.279 l 0,-3.834 -0.85,0 0,3.968 c 0,0.372 -0.035,0.646 -0.106,0.822 -0.071,0.176 -0.106,0.264 -0.106,0.264 l 0.849,0.216 c 0.008,-0.007 0.027,-0.044 0.057,-0.113 0.029,-0.069 0.061,-0.167 0.095,-0.295 0.033,-0.127 0.05,-0.26 0.05,-0.398 0.574,0.531 1.159,0.796 1.755,0.796 0.306,0 0.582,-0.069 0.828,-0.206 0.246,-0.138 0.425,-0.321 0.537,-0.548 0.089,-0.187 0.134,-0.386 0.134,-0.6 l 0,-3.906 -0.883,0 z m -8.253,2.439 0,-0.124 c 0,-0.241 0.019,-0.455 0.056,-0.641 0.037,-0.186 0.104,-0.348 0.201,-0.486 0.157,-0.22 0.356,-0.38 0.598,-0.48 0.243,-0.1 0.506,-0.15 0.789,-0.15 0.529,0 0.984,0.162 1.364,0.486 l 0.336,-0.517 c -0.247,-0.207 -0.532,-0.365 -0.856,-0.475 -0.324,-0.111 -0.665,-0.166 -1.023,-0.166 -0.776,0 -1.381,0.243 -1.817,0.729 -0.436,0.486 -0.654,1.156 -0.654,2.01 0,0.434 0.052,0.801 0.156,1.1 0.105,0.3 0.276,0.581 0.514,0.843 0.44,0.475 0.996,0.713 1.667,0.713 0.618,0 1.122,-0.186 1.509,-0.558 0.12,-0.117 0.22,-0.238 0.302,-0.362 0.082,-0.124 0.148,-0.269 0.196,-0.434 0.049,-0.165 0.084,-0.358 0.106,-0.579 0.022,-0.22 0.034,-0.486 0.034,-0.796 l 0,-0.113 -3.478,0 z m 2.55,0.61 c -0.008,0.282 -0.032,0.513 -0.073,0.692 -0.041,0.179 -0.103,0.331 -0.185,0.454 -0.097,0.138 -0.235,0.249 -0.413,0.331 -0.179,0.083 -0.377,0.124 -0.593,0.124 -0.813,0 -1.241,-0.534 -1.286,-1.601 l 2.55,0 z M -32.328,0 l -4.551,0 0,0.651 3.276,5.053 c 0.149,0.221 0.269,0.39 0.358,0.507 0.09,0.117 0.134,0.176 0.134,0.176 0,0 -0.073,-0.002 -0.218,-0.006 -0.145,-0.003 -0.337,-0.005 -0.576,-0.005 l -2.862,0 0.257,0.713 4.372,0 0,-0.723 -3.187,-4.971 c -0.126,-0.2 -0.237,-0.363 -0.33,-0.491 -0.093,-0.127 -0.139,-0.191 -0.139,-0.191 0,0 0.067,0.002 0.201,0.005 0.134,0.004 0.287,0.005 0.458,0.005 l 3.042,0 L -32.328,0 z m -7.47,3.152 2.1362,0 0,-0.78467 -2.1362,0 0,0.78467 z M -41.106,0 l -3.713,0 0,0.62 3.031,3.886 -2.796,0 0,0.64 3.713,0 0,-0.661 -2.897,-3.865 3.076,0 L -41.106,0 z m -4.596,4.537 -1.163,0 0,-3.318 c 0,-0.289 0.05,-0.489 0.151,-0.599 0.101,-0.11 0.289,-0.165 0.565,-0.165 0.126,0 0.229,0.008 0.307,0.025 0.078,0.018 0.158,0.044 0.24,0.078 l 0.124,-0.517 c -0.284,-0.137 -0.612,-0.206 -0.984,-0.206 -0.15,0 -0.282,0.012 -0.398,0.036 -0.115,0.024 -0.225,0.06 -0.329,0.108 -0.194,0.09 -0.332,0.217 -0.414,0.383 -0.082,0.165 -0.123,0.379 -0.123,0.64 l 0,3.535 -0.727,0 0,0.609 0.727,0 c 0,0.124 0.004,0.262 0.011,0.414 0.008,0.151 0.017,0.293 0.028,0.423 0.011,0.131 0.023,0.242 0.034,0.331 0.011,0.09 0.016,0.134 0.016,0.134 l 0.917,0.187 c 0,0 -0.005,-0.045 -0.016,-0.135 -0.012,-0.09 -0.025,-0.207 -0.039,-0.351 -0.016,-0.145 -0.029,-0.305 -0.04,-0.481 -0.011,-0.176 -0.016,-0.349 -0.016,-0.522 l 1.397,0 -0.268,-0.609 z M -49.135,0.01 c -0.112,-0.048 -0.203,-0.079 -0.274,-0.093 -0.071,-0.013 -0.166,-0.02 -0.285,-0.02 -0.276,0 -0.496,0.072 -0.66,0.217 -0.089,0.075 -0.156,0.17 -0.201,0.284 -0.045,0.114 -0.067,0.263 -0.067,0.449 l 0,5.457 c 0,0.337 -0.023,0.598 -0.067,0.78 -0.045,0.183 -0.067,0.274 -0.067,0.274 l 0.872,0.155 c 0,0 0.024,-0.105 0.073,-0.315 0.048,-0.21 0.072,-0.512 0.072,-0.905 l 0,-5.26 c 0,-0.199 0.02,-0.335 0.062,-0.408 0.041,-0.072 0.125,-0.109 0.251,-0.109 0.015,0 0.037,0.004 0.067,0.011 0.03,0.007 0.045,0.01 0.045,0.01 l 0.179,-0.527 z m -3.053,2.48 c 0,-0.427 -0.059,-0.804 -0.179,-1.131 -0.119,-0.327 -0.285,-0.601 -0.497,-0.822 -0.213,-0.22 -0.464,-0.387 -0.755,-0.501 -0.291,-0.114 -0.611,-0.17 -0.962,-0.17 -0.767,0 -1.36,0.244 -1.778,0.733 -0.417,0.489 -0.626,1.158 -0.626,2.005 0,0.841 0.211,1.5 0.632,1.979 0.421,0.479 1.001,0.718 1.739,0.718 0.469,0 0.857,-0.086 1.163,-0.258 0.305,-0.172 0.555,-0.386 0.749,-0.641 0.171,-0.234 0.3,-0.506 0.386,-0.816 0.085,-0.31 0.128,-0.675 0.128,-1.096 m -0.995,-0.062 c 0,0.71 -0.086,1.227 -0.257,1.551 -0.12,0.227 -0.289,0.394 -0.509,0.501 -0.22,0.107 -0.445,0.16 -0.677,0.16 -0.245,0 -0.473,-0.05 -0.682,-0.15 -0.208,-0.1 -0.361,-0.236 -0.458,-0.408 -0.089,-0.159 -0.157,-0.345 -0.201,-0.558 -0.045,-0.214 -0.067,-0.475 -0.067,-0.786 0,-0.365 0.031,-0.697 0.095,-0.997 0.063,-0.299 0.147,-0.529 0.251,-0.687 0.105,-0.159 0.259,-0.284 0.464,-0.377 0.205,-0.093 0.427,-0.14 0.666,-0.14 0.29,0 0.54,0.067 0.749,0.202 0.209,0.134 0.361,0.326 0.458,0.573 0.06,0.159 0.103,0.321 0.129,0.486 0.026,0.166 0.039,0.375 0.039,0.63 M -59.467,0 l 0,3.555 c 0,0.193 -0.015,0.349 -0.045,0.47 -0.03,0.121 -0.086,0.219 -0.168,0.294 -0.067,0.063 -0.156,0.113 -0.268,0.15 -0.112,0.038 -0.239,0.057 -0.38,0.057 -0.269,0 -0.547,-0.075 -0.833,-0.227 -0.287,-0.152 -0.55,-0.365 -0.789,-0.641 l 0,-3.658 -0.872,0 0,6.345 c 0,0.338 -0.024,0.598 -0.073,0.78 -0.048,0.183 -0.072,0.274 -0.072,0.274 l 0.872,0.155 c 0,0 0.024,-0.105 0.072,-0.315 0.049,-0.21 0.073,-0.511 0.073,-0.904 l 0,-1.199 c 0,-0.165 -0.005,-0.324 -0.017,-0.475 -0.011,-0.152 -0.016,-0.228 -0.016,-0.228 0.253,0.221 0.536,0.412 0.849,0.574 0.314,0.162 0.649,0.243 1.007,0.243 0.335,0 0.637,-0.076 0.906,-0.228 0.268,-0.151 0.443,-0.347 0.525,-0.589 0.037,-0.103 0.062,-0.206 0.073,-0.31 0.011,-0.103 0.017,-0.248 0.017,-0.434 l 0,-3.689 -0.861,0 z m -6.262,0 0,3.803 c 0,0.503 -0.239,0.754 -0.716,0.754 -0.254,0 -0.49,-0.07 -0.71,-0.212 -0.22,-0.141 -0.475,-0.336 -0.766,-0.583 l 0,-3.762 -0.884,0 0,3.658 c 0,0.159 -0.011,0.29 -0.033,0.393 -0.023,0.103 -0.064,0.193 -0.123,0.268 -0.127,0.138 -0.317,0.207 -0.57,0.207 -0.217,0 -0.435,-0.053 -0.655,-0.16 -0.22,-0.107 -0.475,-0.28 -0.766,-0.522 l 0,-3.844 -0.838,0 0,3.989 c 0,0.372 -0.034,0.648 -0.101,0.827 -0.067,0.179 -0.101,0.268 -0.101,0.268 l 0.85,0.186 c 0.008,-0.007 0.026,-0.044 0.056,-0.113 0.03,-0.069 0.062,-0.166 0.095,-0.29 0.034,-0.123 0.051,-0.244 0.051,-0.361 0.089,0.096 0.197,0.191 0.324,0.284 0.127,0.093 0.263,0.176 0.408,0.248 0.145,0.072 0.295,0.131 0.447,0.176 0.153,0.044 0.3,0.067 0.442,0.067 0.276,0 0.535,-0.074 0.777,-0.222 0.243,-0.149 0.416,-0.361 0.52,-0.636 0.269,0.262 0.563,0.47 0.883,0.625 0.321,0.155 0.623,0.233 0.906,0.233 0.418,0 0.755,-0.129 1.012,-0.388 0.258,-0.258 0.386,-0.594 0.386,-1.007 l 0,-3.886 -0.894,0 z m -7.47,0.01 c -0.112,-0.048 -0.203,-0.079 -0.274,-0.093 -0.071,-0.013 -0.166,-0.02 -0.285,-0.02 -0.276,0 -0.496,0.072 -0.66,0.217 -0.09,0.075 -0.157,0.17 -0.201,0.284 -0.045,0.114 -0.067,0.263 -0.067,0.449 l 0,5.457 c 0,0.337 -0.023,0.598 -0.068,0.78 -0.044,0.183 -0.067,0.274 -0.067,0.274 l 0.873,0.155 c 0,0 0.024,-0.105 0.072,-0.315 0.049,-0.21 0.073,-0.512 0.073,-0.905 l 0,-5.26 c 0,-0.199 0.02,-0.335 0.061,-0.408 0.041,-0.072 0.125,-0.109 0.252,-0.109 0.015,0 0.037,0.004 0.067,0.011 0.03,0.007 0.045,0.01 0.045,0.01 l 0.179,-0.527 z m -6.531,2.429 0,-0.124 c 0,-0.241 0.019,-0.455 0.056,-0.641 0.038,-0.186 0.105,-0.348 0.201,-0.486 0.157,-0.22 0.356,-0.38 0.599,-0.48 0.242,-0.1 0.505,-0.15 0.788,-0.15 0.529,0 0.984,0.162 1.364,0.486 l 0.336,-0.517 c -0.246,-0.207 -0.531,-0.365 -0.856,-0.475 -0.324,-0.111 -0.665,-0.166 -1.023,-0.166 -0.775,0 -1.381,0.243 -1.817,0.729 -0.436,0.486 -0.654,1.156 -0.654,2.01 0,0.434 0.052,0.801 0.156,1.1 0.105,0.3 0.276,0.581 0.515,0.843 0.44,0.475 0.995,0.713 1.666,0.713 0.619,0 1.122,-0.186 1.51,-0.558 0.119,-0.117 0.22,-0.238 0.301,-0.362 0.083,-0.124 0.148,-0.269 0.196,-0.434 0.049,-0.165 0.084,-0.358 0.106,-0.579 0.023,-0.22 0.034,-0.486 0.034,-0.796 l 0,-0.113 -3.478,0 z m 2.55,0.61 c -0.008,0.282 -0.032,0.513 -0.073,0.692 -0.041,0.179 -0.102,0.331 -0.184,0.454 -0.097,0.138 -0.235,0.249 -0.414,0.331 -0.179,0.083 -0.377,0.124 -0.593,0.124 -0.812,0 -1.241,-0.534 -1.286,-1.601 l 2.55,0 z M -83.33,0 l 0,3.431 -3.232,0 0,-3.431 -0.895,0 0,7.089 0.895,0 0,-2.966 3.232,0 0,2.966 0.917,0 0,-7.089 -0.917,0"
         style="fill:#231f20;fill-opacity:1;fill-rule:nonzero;stroke:none"
         id="path86" />
    </g>
  </g>
</svg>
